# xmcd CD database file
#
# Track frame offsets:
# 183
# 20730
# 41480
# 53243
# 75933
# 91713
# 103145
# 120688
# 143998
# 160085
#
# Disc length: 2356 seconds
# Revision: 43
# Processed by: cddbd v1.5.2PL0 Copyright (c) Steve Scherf et al.
# Submitted via: MusicBin 0.4
#
DISCID=6809330a,7309320a,7709320a
DTITLE=Van Morrison - Moondance
DYEAR=1970
DGENRE=Folk-Rock
TTITLE0=And It Stoned Me
TTITLE1=Moondance
TTITLE2=Crazy Love
TTITLE3=Caravan
TTITLE4=Into the Mystic
TTITLE5=Come Running
TTITLE6=These Dreams of You
TTITLE7=Brand New Day
TTITLE8=Everyone
TTITLE9=Glad Tidings
EXTD=Van Morrison - Rhythm Guitar and Tambourine\nJack Schrorer - 
EXTD=Alto and Soprano Sax\nCollin Tillton - Tenor Sax and Flute\nJ
EXTD=eff Labes - Piano, Organ and Clavinette\nJohn Platania - Lead
EXTD=and Rhythm Guitars\nJohn Klingberg - Bass\nGarry Malabar - D
EXTD=rums and Vibes
EXTT0=
EXTT1=
EXTT2=
EXTT3=
EXTT4=
EXTT5=
EXTT6=
EXTT7=
EXTT8=
EXTT9=
PLAYORDER=
